<svg xmlns="http://www.w3.org/2000/svg" xmlns:xlink="http://www.w3.org/1999/xlink"><defs><linearGradient id="b" x1="0%" x2="0%" y1="100%" y2="0%"><stop offset="0%" stop-opacity=".96"/><stop offset="50%" stop-color="#9E9E9E" stop-opacity=".96"/><stop offset="50%" stop-color="#D0D0D0" stop-opacity=".96"/><stop offset="100%" stop-color="#9E9E9E" stop-opacity=".96"/></linearGradient><filter id="a"><feOffset in="SourceAlpha" dy="1"/><feGaussianBlur result="blurOut"/><feFlood flood-color="#FFF1D8" result="floodOut"/><feComposite operator="out" in="floodOut" in2="blurOut" result="compOut"/><feComposite operator="in" in="compOut" in2="SourceAlpha"/><feComponentTransfer><feFuncA type="linear" slope=".44"/></feComponentTransfer><feBlend in2="SourceGraphic"/></filter></defs><symbol id="icon-user"><g filter="url(#a)"><path fill-rule="evenodd" fill="#BB9C66" d="M15.669 7.495c.127.506.14.549.128 1.068-.005.201-.121 1.128-.09 1.412.026.234.086.253.179.446.164.336.109.8.047 1.139-.035.185-.107.449-.217.601-.122.167-.365.168-.472.363-.155.28-.067.673-.165.976-.111.343-.393.367-.414.817l.414.058c.138.29.392.874.651 1.05l.651.175c.76.307 1.605.675 2.367.992.694.289 1.525.391 1.776 1.109 0 .487.046 1.637.033 2.275 0 0 .003 2.024-7.557 2.024-7.559 0-7.557-2.024-7.557-2.024-.013-.638.034-1.788.034-2.275.25-.718 1.081-.82 1.775-1.109.762-.317 1.607-.685 2.367-.992l.651-.175c.259-.176.513-.76.651-1.05l.308-.074c-.07-.383-.311-.413-.411-.684l-.118-1.226c.002.019-.283-.051-.321-.074-.402-.248-.41-1.257-.449-1.676-.017-.191.253-.349.178-.7-.44-2.058.19-3.021 1.188-3.34.693-.277 1.985-.79 3.191-.058l.299.273.485.082c.243.138.398.597.398.597z"/></g><path fill="url(#b)" d="M15.669 7.495c.127.506.14.549.128 1.068-.005.201-.121 1.128-.09 1.412.026.234.086.253.179.446.164.336.109.8.047 1.139-.035.185-.107.449-.217.601-.122.167-.365.168-.472.363-.155.28-.067.673-.165.976-.111.343-.393.367-.414.817l.414.058c.138.29.392.874.651 1.05l.651.175c.76.307 1.605.675 2.367.992.694.289 1.525.391 1.776 1.109 0 .487.046 1.637.033 2.275 0 0 .003 2.024-7.557 2.024-7.559 0-7.557-2.024-7.557-2.024-.013-.638.034-1.788.034-2.275.25-.718 1.081-.82 1.775-1.109.762-.317 1.607-.685 2.367-.992l.651-.175c.259-.176.513-.76.651-1.05l.308-.074c-.07-.383-.311-.413-.411-.684l-.118-1.226c.002.019-.283-.051-.321-.074-.402-.248-.41-1.257-.449-1.676-.017-.191.253-.349.178-.7-.44-2.058.19-3.021 1.188-3.34.693-.277 1.985-.79 3.191-.058l.299.273.485.082c.243.138.398.597.398.597z"/></symbol></svg>