<svg
 xmlns="http://www.w3.org/2000/svg"
 xmlns:xlink="http://www.w3.org/1999/xlink"
 width="42px" height="46px">
<defs>
<filter id="Filter_0">
    <feOffset in="SourceAlpha" dx="0" dy="1" />
    <feGaussianBlur result="blurOut" stdDeviation="0" />
    <feFlood flood-color="rgb(255, 241, 216)" result="floodOut" />
    <feComposite operator="out" in="floodOut" in2="blurOut" result="compOut" />
    <feComposite operator="in" in="compOut" in2="SourceAlpha" />
    <feComponentTransfer><feFuncA type="linear" slope="0.44"/></feComponentTransfer>
    <feBlend mode="normal" in2="SourceGraphic" />
</filter>
<linearGradient id="PSgrad_0" x1="0%" x2="0%" y1="100%" y2="0%">
  <stop offset="0%" stop-color="rgb(0,0,0)" stop-opacity="0.96" />
  <stop offset="50%" stop-color="rgb(158,158,158)" stop-opacity="0.96" />
  <stop offset="50%" stop-color="rgb(208,208,208)" stop-opacity="0.96" />
  <stop offset="100%" stop-color="rgb(158,158,158)" stop-opacity="0.96" />
</linearGradient>

</defs>
<g filter="url(#Filter_0)">
<path fill-rule="evenodd"  fill="rgb(187, 156, 102)"
 d="M35.532,34.240 C35.280,34.046 34.936,33.105 34.936,32.772 L34.936,13.228 C34.936,12.894 35.280,12.167 35.532,11.976 C35.532,11.976 36.999,10.858 36.999,9.671 C36.999,8.067 35.554,6.766 33.769,6.766 C32.827,6.766 31.872,7.394 31.872,7.394 C31.609,7.567 31.116,8.086 30.807,8.086 L27.710,8.086 C27.400,8.086 27.140,7.567 26.874,7.394 C26.874,7.394 25.557,6.533 24.378,6.533 C24.131,6.533 24.131,6.533 24.131,6.533 C23.866,6.567 23.464,6.413 23.236,6.187 C23.236,6.187 22.029,5.001 20.770,5.001 C19.506,5.001 18.299,6.197 18.299,6.197 C18.069,6.421 17.644,6.576 17.354,6.533 C17.354,6.533 17.354,6.533 17.075,6.533 C15.898,6.533 14.582,7.394 14.582,7.394 C14.316,7.567 13.567,8.086 13.258,8.086 L11.194,8.086 C10.887,8.086 10.391,7.567 10.128,7.394 C10.128,7.394 9.173,6.766 8.231,6.766 C6.447,6.766 5.001,8.067 5.001,9.671 C5.001,10.858 6.469,11.976 6.469,11.976 C6.720,12.167 7.065,12.894 7.065,13.228 L7.065,33.800 C7.065,34.134 6.720,34.044 6.469,34.240 C6.469,34.240 5.001,35.359 5.001,36.546 C5.001,38.150 6.447,39.450 8.231,39.450 C9.285,39.450 10.347,38.641 10.347,38.641 C10.602,38.449 10.884,37.914 11.194,37.914 L13.258,37.914 C13.567,37.914 13.996,38.452 14.245,38.648 C14.245,38.648 15.723,39.806 17.075,39.806 C17.480,39.806 17.691,39.763 17.691,39.763 C17.995,39.700 18.441,39.820 18.684,40.025 C18.684,40.025 19.823,40.999 20.970,40.999 C22.073,40.999 23.182,40.106 23.182,40.106 C23.428,39.905 23.852,39.769 24.120,39.806 C24.120,39.806 24.120,39.806 24.378,39.806 C25.730,39.806 27.208,38.648 27.208,38.648 C27.460,38.452 28.433,37.914 28.742,37.914 L30.807,37.914 C31.116,37.914 31.399,38.449 31.651,38.641 C31.651,38.641 32.715,39.450 33.769,39.450 C35.554,39.450 36.999,38.150 36.999,36.546 C36.999,35.359 35.532,34.240 35.532,34.240 ZM30.807,33.800 L11.194,33.800 L11.194,12.200 L30.807,12.200 L30.807,33.800 Z"/>
</g>
<path fill="url(#PSgrad_0)"
 d="M35.532,34.240 C35.280,34.046 34.936,33.105 34.936,32.772 L34.936,13.228 C34.936,12.894 35.280,12.167 35.532,11.976 C35.532,11.976 36.999,10.858 36.999,9.671 C36.999,8.067 35.554,6.766 33.769,6.766 C32.827,6.766 31.872,7.394 31.872,7.394 C31.609,7.567 31.116,8.086 30.807,8.086 L27.710,8.086 C27.400,8.086 27.140,7.567 26.874,7.394 C26.874,7.394 25.557,6.533 24.378,6.533 C24.131,6.533 24.131,6.533 24.131,6.533 C23.866,6.567 23.464,6.413 23.236,6.187 C23.236,6.187 22.029,5.001 20.770,5.001 C19.506,5.001 18.299,6.197 18.299,6.197 C18.069,6.421 17.644,6.576 17.354,6.533 C17.354,6.533 17.354,6.533 17.075,6.533 C15.898,6.533 14.582,7.394 14.582,7.394 C14.316,7.567 13.567,8.086 13.258,8.086 L11.194,8.086 C10.887,8.086 10.391,7.567 10.128,7.394 C10.128,7.394 9.173,6.766 8.231,6.766 C6.447,6.766 5.001,8.067 5.001,9.671 C5.001,10.858 6.469,11.976 6.469,11.976 C6.720,12.167 7.065,12.894 7.065,13.228 L7.065,33.800 C7.065,34.134 6.720,34.044 6.469,34.240 C6.469,34.240 5.001,35.359 5.001,36.546 C5.001,38.150 6.447,39.450 8.231,39.450 C9.285,39.450 10.347,38.641 10.347,38.641 C10.602,38.449 10.884,37.914 11.194,37.914 L13.258,37.914 C13.567,37.914 13.996,38.452 14.245,38.648 C14.245,38.648 15.723,39.806 17.075,39.806 C17.480,39.806 17.691,39.763 17.691,39.763 C17.995,39.700 18.441,39.820 18.684,40.025 C18.684,40.025 19.823,40.999 20.970,40.999 C22.073,40.999 23.182,40.106 23.182,40.106 C23.428,39.905 23.852,39.769 24.120,39.806 C24.120,39.806 24.120,39.806 24.378,39.806 C25.730,39.806 27.208,38.648 27.208,38.648 C27.460,38.452 28.433,37.914 28.742,37.914 L30.807,37.914 C31.116,37.914 31.399,38.449 31.651,38.641 C31.651,38.641 32.715,39.450 33.769,39.450 C35.554,39.450 36.999,38.150 36.999,36.546 C36.999,35.359 35.532,34.240 35.532,34.240 ZM30.807,33.800 L11.194,33.800 L11.194,12.200 L30.807,12.200 L30.807,33.800 Z"/>
</svg>
