<svg
 xmlns="http://www.w3.org/2000/svg"
 xmlns:xlink="http://www.w3.org/1999/xlink"
 width="46px" height="43px">
<defs>
<filter id="Filter_0">
    <feOffset in="SourceAlpha" dx="0" dy="1" />
    <feGaussianBlur result="blurOut" stdDeviation="0" />
    <feFlood flood-color="rgb(255, 241, 216)" result="floodOut" />
    <feComposite operator="out" in="floodOut" in2="blurOut" result="compOut" />
    <feComposite operator="in" in="compOut" in2="SourceAlpha" />
    <feComponentTransfer><feFuncA type="linear" slope="0.44"/></feComponentTransfer>
    <feBlend mode="normal" in2="SourceGraphic" />
</filter>
<linearGradient id="PSgrad_0" x1="0%" x2="0%" y1="100%" y2="0%">
  <stop offset="0%" stop-color="rgb(0,0,0)" stop-opacity="0.96" />
  <stop offset="50%" stop-color="rgb(158,158,158)" stop-opacity="0.96" />
  <stop offset="50%" stop-color="rgb(208,208,208)" stop-opacity="0.96" />
  <stop offset="100%" stop-color="rgb(158,158,158)" stop-opacity="0.96" />
</linearGradient>

</defs>
<g filter="url(#Filter_0)">
<path fill-rule="evenodd"  fill="rgb(187, 156, 102)"
 d="M41.000,21.027 C41.000,19.791 39.971,18.789 38.702,18.789 L37.632,18.789 L34.632,9.506 L34.601,9.433 C34.142,8.383 33.362,7.581 32.455,6.987 C31.544,6.403 30.486,6.009 29.312,6.000 L16.340,6.000 C15.167,6.009 14.107,6.403 13.196,6.987 C12.292,7.581 11.511,8.383 11.053,9.433 L11.020,9.508 L8.023,18.789 L7.298,18.789 C6.029,18.789 5.000,19.791 5.000,21.027 L5.000,31.072 L7.180,31.072 L7.180,33.950 C7.180,35.636 8.582,37.001 10.313,37.001 C12.043,37.001 13.445,35.636 13.445,33.950 L13.445,31.072 L32.446,31.072 L32.446,33.950 C32.446,35.633 33.848,37.001 35.579,37.001 C37.309,37.001 38.711,35.633 38.711,33.950 L38.711,31.072 L41.000,31.072 L41.000,21.027 ZM35.579,22.102 C37.014,22.102 38.177,23.233 38.177,24.630 C38.177,26.026 37.014,27.158 35.579,27.158 C34.144,27.158 32.984,26.026 32.984,24.630 C32.984,23.233 34.144,22.102 35.579,22.102 ZM14.362,10.705 C14.484,10.457 14.785,10.111 15.169,9.869 C15.581,9.594 16.066,9.456 16.340,9.464 L29.312,9.464 C29.587,9.456 30.074,9.594 30.484,9.869 C30.870,10.111 31.170,10.457 31.292,10.705 L33.903,18.789 L11.749,18.789 L14.362,10.705 ZM10.313,27.158 C8.878,27.158 7.715,26.026 7.715,24.630 C7.715,23.233 8.878,22.102 10.313,22.102 C11.746,22.102 12.907,23.233 12.907,24.630 C12.907,26.026 11.746,27.158 10.313,27.158 Z"/>
</g>
<path fill="url(#PSgrad_0)"
 d="M41.000,21.027 C41.000,19.791 39.971,18.789 38.702,18.789 L37.632,18.789 L34.632,9.506 L34.601,9.433 C34.142,8.383 33.362,7.581 32.455,6.987 C31.544,6.403 30.486,6.009 29.312,6.000 L16.340,6.000 C15.167,6.009 14.107,6.403 13.196,6.987 C12.292,7.581 11.511,8.383 11.053,9.433 L11.020,9.508 L8.023,18.789 L7.298,18.789 C6.029,18.789 5.000,19.791 5.000,21.027 L5.000,31.072 L7.180,31.072 L7.180,33.950 C7.180,35.636 8.582,37.001 10.313,37.001 C12.043,37.001 13.445,35.636 13.445,33.950 L13.445,31.072 L32.446,31.072 L32.446,33.950 C32.446,35.633 33.848,37.001 35.579,37.001 C37.309,37.001 38.711,35.633 38.711,33.950 L38.711,31.072 L41.000,31.072 L41.000,21.027 ZM35.579,22.102 C37.014,22.102 38.177,23.233 38.177,24.630 C38.177,26.026 37.014,27.158 35.579,27.158 C34.144,27.158 32.984,26.026 32.984,24.630 C32.984,23.233 34.144,22.102 35.579,22.102 ZM14.362,10.705 C14.484,10.457 14.785,10.111 15.169,9.869 C15.581,9.594 16.066,9.456 16.340,9.464 L29.312,9.464 C29.587,9.456 30.074,9.594 30.484,9.869 C30.870,10.111 31.170,10.457 31.292,10.705 L33.903,18.789 L11.749,18.789 L14.362,10.705 ZM10.313,27.158 C8.878,27.158 7.715,26.026 7.715,24.630 C7.715,23.233 8.878,22.102 10.313,22.102 C11.746,22.102 12.907,23.233 12.907,24.630 C12.907,26.026 11.746,27.158 10.313,27.158 Z"/>
</svg>
