<svg
 xmlns="http://www.w3.org/2000/svg"
 xmlns:xlink="http://www.w3.org/1999/xlink"
 width="55px" height="45px">
<defs>
<filter id="Filter_0">
    <feOffset in="SourceAlpha" dx="0" dy="1" />
    <feGaussianBlur result="blurOut" stdDeviation="0" />
    <feFlood flood-color="rgb(255, 241, 216)" result="floodOut" />
    <feComposite operator="out" in="floodOut" in2="blurOut" result="compOut" />
    <feComposite operator="in" in="compOut" in2="SourceAlpha" />
    <feComponentTransfer><feFuncA type="linear" slope="0.44"/></feComponentTransfer>
    <feBlend mode="normal" in2="SourceGraphic" />
</filter>
<linearGradient id="PSgrad_0" x1="0%" x2="0%" y1="100%" y2="0%">
  <stop offset="0%" stop-color="rgb(0,0,0)" stop-opacity="0.96" />
  <stop offset="50%" stop-color="rgb(158,158,158)" stop-opacity="0.96" />
  <stop offset="50%" stop-color="rgb(208,208,208)" stop-opacity="0.96" />
  <stop offset="100%" stop-color="rgb(158,158,158)" stop-opacity="0.96" />
</linearGradient>

</defs>
<g filter="url(#Filter_0)">
<path fill-rule="evenodd"  fill="rgb(187, 156, 102)"
 d="M46.743,31.186 L30.145,20.803 C30.082,20.763 30.016,20.726 29.951,20.690 L29.951,19.763 C33.035,18.761 35.258,15.923 35.258,12.573 C35.258,8.390 31.787,5.002 27.499,5.000 C23.211,5.002 19.738,8.390 19.738,12.573 L24.641,12.573 C24.644,11.035 25.920,9.788 27.499,9.783 C29.076,9.788 30.352,11.035 30.358,12.573 C30.352,14.112 29.076,15.361 27.499,15.364 C26.854,15.364 26.221,15.619 25.766,16.064 C25.308,16.509 25.048,17.126 25.048,17.756 L25.048,20.690 C24.982,20.726 24.917,20.763 24.854,20.803 L8.256,31.186 C6.422,32.330 5.585,34.521 6.197,36.558 C6.811,38.596 8.726,40.000 10.902,40.000 L44.098,40.000 C46.273,40.000 48.188,38.596 48.799,36.558 C49.414,34.521 48.573,32.330 46.743,31.186 ZM10.902,35.212 L27.499,24.830 L44.098,35.212 L10.902,35.212 Z"/>
</g>
<path fill="url(#PSgrad_0)"
 d="M46.743,31.186 L30.145,20.803 C30.082,20.763 30.016,20.726 29.951,20.690 L29.951,19.763 C33.035,18.761 35.258,15.923 35.258,12.573 C35.258,8.390 31.787,5.002 27.499,5.000 C23.211,5.002 19.738,8.390 19.738,12.573 L24.641,12.573 C24.644,11.035 25.920,9.788 27.499,9.783 C29.076,9.788 30.352,11.035 30.358,12.573 C30.352,14.112 29.076,15.361 27.499,15.364 C26.854,15.364 26.221,15.619 25.766,16.064 C25.308,16.509 25.048,17.126 25.048,17.756 L25.048,20.690 C24.982,20.726 24.917,20.763 24.854,20.803 L8.256,31.186 C6.422,32.330 5.585,34.521 6.197,36.558 C6.811,38.596 8.726,40.000 10.902,40.000 L44.098,40.000 C46.273,40.000 48.188,38.596 48.799,36.558 C49.414,34.521 48.573,32.330 46.743,31.186 ZM10.902,35.212 L27.499,24.830 L44.098,35.212 L10.902,35.212 Z"/>
</svg>
