<svg
 xmlns="http://www.w3.org/2000/svg"
 xmlns:xlink="http://www.w3.org/1999/xlink"
 width="26px" height="27px">
<defs>
<filter id="Filter_0">
    <feOffset in="SourceAlpha" dx="0" dy="1" />
    <feGaussianBlur result="blurOut" stdDeviation="0" />
    <feFlood flood-color="rgb(255, 241, 216)" result="floodOut" />
    <feComposite operator="out" in="floodOut" in2="blurOut" result="compOut" />
    <feComposite operator="in" in="compOut" in2="SourceAlpha" />
    <feComponentTransfer><feFuncA type="linear" slope="0.44"/></feComponentTransfer>
    <feBlend mode="normal" in2="SourceGraphic" />
</filter>
<linearGradient id="PSgrad_0" x1="0%" x2="0%" y1="100%" y2="0%">
  <stop offset="0%" stop-color="rgb(0,0,0)" stop-opacity="0.96" />
  <stop offset="50%" stop-color="rgb(158,158,158)" stop-opacity="0.96" />
  <stop offset="50%" stop-color="rgb(208,208,208)" stop-opacity="0.96" />
  <stop offset="100%" stop-color="rgb(158,158,158)" stop-opacity="0.96" />
</linearGradient>

</defs>
<g filter="url(#Filter_0)">
<path fill-rule="evenodd"  fill="rgb(187, 156, 102)"
 d="M15.669,7.495 C15.796,8.001 15.809,8.044 15.797,8.563 C15.792,8.764 15.676,9.691 15.707,9.975 C15.733,10.209 15.793,10.228 15.886,10.421 C16.050,10.757 15.995,11.221 15.933,11.560 C15.898,11.745 15.826,12.009 15.716,12.161 C15.594,12.328 15.351,12.329 15.244,12.524 C15.089,12.804 15.177,13.197 15.079,13.500 C14.968,13.843 14.686,13.867 14.665,14.317 C14.803,14.336 14.941,14.356 15.079,14.375 C15.217,14.665 15.471,15.249 15.730,15.425 C15.947,15.483 16.164,15.542 16.381,15.600 C17.141,15.907 17.986,16.275 18.748,16.592 C19.442,16.881 20.273,16.983 20.524,17.701 C20.524,18.188 20.570,19.338 20.557,19.976 C20.557,19.976 20.560,22.000 13.000,22.000 C5.441,22.000 5.443,19.976 5.443,19.976 C5.430,19.338 5.477,18.188 5.477,17.701 C5.727,16.983 6.558,16.881 7.252,16.592 C8.014,16.275 8.859,15.907 9.619,15.600 C9.836,15.542 10.053,15.483 10.270,15.425 C10.529,15.249 10.783,14.665 10.921,14.375 L11.229,14.301 C11.159,13.918 10.918,13.888 10.818,13.617 C10.779,13.208 10.739,12.800 10.700,12.391 C10.702,12.410 10.417,12.340 10.379,12.317 C9.977,12.069 9.969,11.060 9.930,10.641 C9.913,10.450 10.183,10.292 10.108,9.941 C9.668,7.883 10.298,6.920 11.296,6.601 C11.989,6.324 13.281,5.811 14.487,6.543 L14.786,6.816 L15.271,6.898 C15.514,7.036 15.669,7.495 15.669,7.495 Z"/>
</g>
<path fill="url(#PSgrad_0)"
 d="M15.669,7.495 C15.796,8.001 15.809,8.044 15.797,8.563 C15.792,8.764 15.676,9.691 15.707,9.975 C15.733,10.209 15.793,10.228 15.886,10.421 C16.050,10.757 15.995,11.221 15.933,11.560 C15.898,11.745 15.826,12.009 15.716,12.161 C15.594,12.328 15.351,12.329 15.244,12.524 C15.089,12.804 15.177,13.197 15.079,13.500 C14.968,13.843 14.686,13.867 14.665,14.317 C14.803,14.336 14.941,14.356 15.079,14.375 C15.217,14.665 15.471,15.249 15.730,15.425 C15.947,15.483 16.164,15.542 16.381,15.600 C17.141,15.907 17.986,16.275 18.748,16.592 C19.442,16.881 20.273,16.983 20.524,17.701 C20.524,18.188 20.570,19.338 20.557,19.976 C20.557,19.976 20.560,22.000 13.000,22.000 C5.441,22.000 5.443,19.976 5.443,19.976 C5.430,19.338 5.477,18.188 5.477,17.701 C5.727,16.983 6.558,16.881 7.252,16.592 C8.014,16.275 8.859,15.907 9.619,15.600 C9.836,15.542 10.053,15.483 10.270,15.425 C10.529,15.249 10.783,14.665 10.921,14.375 L11.229,14.301 C11.159,13.918 10.918,13.888 10.818,13.617 C10.779,13.208 10.739,12.800 10.700,12.391 C10.702,12.410 10.417,12.340 10.379,12.317 C9.977,12.069 9.969,11.060 9.930,10.641 C9.913,10.450 10.183,10.292 10.108,9.941 C9.668,7.883 10.298,6.920 11.296,6.601 C11.989,6.324 13.281,5.811 14.487,6.543 L14.786,6.816 L15.271,6.898 C15.514,7.036 15.669,7.495 15.669,7.495 Z"/>
</svg>
