<svg
 xmlns="http://www.w3.org/2000/svg"
 xmlns:xlink="http://www.w3.org/1999/xlink"
 width="49px" height="47px">
<defs>
<filter id="Filter_0">
    <feOffset in="SourceAlpha" dx="0" dy="1" />
    <feGaussianBlur result="blurOut" stdDeviation="0" />
    <feFlood flood-color="rgb(255, 241, 216)" result="floodOut" />
    <feComposite operator="out" in="floodOut" in2="blurOut" result="compOut" />
    <feComposite operator="in" in="compOut" in2="SourceAlpha" />
    <feComponentTransfer><feFuncA type="linear" slope="0.44"/></feComponentTransfer>
    <feBlend mode="normal" in2="SourceGraphic" />
</filter>
<linearGradient id="PSgrad_0" x1="0%" x2="0%" y1="100%" y2="0%">
  <stop offset="0%" stop-color="rgb(0,0,0)" stop-opacity="0.96" />
  <stop offset="50%" stop-color="rgb(158,158,158)" stop-opacity="0.96" />
  <stop offset="50%" stop-color="rgb(208,208,208)" stop-opacity="0.96" />
  <stop offset="100%" stop-color="rgb(158,158,158)" stop-opacity="0.96" />
</linearGradient>

</defs>
<g filter="url(#Filter_0)">
<path fill-rule="evenodd"  fill="rgb(187, 156, 102)"
 d="M37.117,5.006 L36.362,5.006 L12.873,5.006 L5.996,14.799 L24.994,41.002 L43.992,14.799 L37.117,5.006 ZM21.937,13.295 L24.997,9.162 L28.058,13.295 L21.937,13.295 ZM28.616,16.274 L24.997,31.563 L21.378,16.274 L28.616,16.274 ZM27.799,7.985 L33.607,7.985 L30.703,11.907 L27.799,7.985 ZM19.293,11.907 L16.387,7.989 L22.195,7.989 L19.293,11.907 ZM16.647,13.295 L10.656,13.295 L13.573,9.143 L16.647,13.295 ZM18.361,16.274 L22.070,31.941 L10.711,16.274 L18.361,16.274 ZM31.635,16.274 L39.277,16.274 L27.929,31.928 L31.635,16.274 ZM33.347,13.295 L36.420,9.146 L39.333,13.295 L33.347,13.295 Z"/>
</g>
<path fill="url(#PSgrad_0)"
 d="M37.117,5.006 L36.362,5.006 L12.873,5.006 L5.996,14.799 L24.994,41.002 L43.992,14.799 L37.117,5.006 ZM21.937,13.295 L24.997,9.162 L28.058,13.295 L21.937,13.295 ZM28.616,16.274 L24.997,31.563 L21.378,16.274 L28.616,16.274 ZM27.799,7.985 L33.607,7.985 L30.703,11.907 L27.799,7.985 ZM19.293,11.907 L16.387,7.989 L22.195,7.989 L19.293,11.907 ZM16.647,13.295 L10.656,13.295 L13.573,9.143 L16.647,13.295 ZM18.361,16.274 L22.070,31.941 L10.711,16.274 L18.361,16.274 ZM31.635,16.274 L39.277,16.274 L27.929,31.928 L31.635,16.274 ZM33.347,13.295 L36.420,9.146 L39.333,13.295 L33.347,13.295 Z"/>
</svg>
