<svg
 xmlns="http://www.w3.org/2000/svg"
 xmlns:xlink="http://www.w3.org/1999/xlink"
 width="60px" height="35px">
<defs>
<filter id="Filter_0">
    <feOffset in="SourceAlpha" dx="0" dy="1" />
    <feGaussianBlur result="blurOut" stdDeviation="0" />
    <feFlood flood-color="rgb(255, 241, 216)" result="floodOut" />
    <feComposite operator="out" in="floodOut" in2="blurOut" result="compOut" />
    <feComposite operator="in" in="compOut" in2="SourceAlpha" />
    <feComponentTransfer><feFuncA type="linear" slope="0.44"/></feComponentTransfer>
    <feBlend mode="normal" in2="SourceGraphic" />
</filter>
<linearGradient id="PSgrad_0" x1="0%" x2="0%" y1="100%" y2="0%">
  <stop offset="0%" stop-color="rgb(0,0,0)" stop-opacity="0.96" />
  <stop offset="50%" stop-color="rgb(158,158,158)" stop-opacity="0.96" />
  <stop offset="50%" stop-color="rgb(208,208,208)" stop-opacity="0.96" />
  <stop offset="100%" stop-color="rgb(158,158,158)" stop-opacity="0.96" />
</linearGradient>

</defs>
<g filter="url(#Filter_0)">
<path fill-rule="evenodd"  fill="rgb(187, 156, 102)"
 d="M28.000,29.000 L28.000,16.000 L38.000,16.000 L38.000,7.000 L40.000,7.000 L40.000,16.000 L55.000,16.000 L55.000,29.000 L28.000,29.000 ZM45.000,20.000 L31.000,20.000 L31.000,27.000 L45.000,27.000 L45.000,20.000 ZM52.000,20.000 L46.000,20.000 L46.000,27.000 L52.000,27.000 L52.000,20.000 ZM5.000,5.000 L43.000,5.000 L43.000,6.000 L5.000,6.000 L5.000,5.000 ZM26.000,29.000 L9.000,29.000 L9.000,7.000 L26.000,7.000 L26.000,29.000 ZM23.000,10.000 L12.000,10.000 L12.000,16.000 L23.000,16.000 L23.000,10.000 ZM23.000,20.000 L12.000,20.000 L12.000,27.000 L23.000,27.000 L23.000,20.000 Z"/>
</g>
<path fill="url(#PSgrad_0)"
 d="M28.000,29.000 L28.000,16.000 L38.000,16.000 L38.000,7.000 L40.000,7.000 L40.000,16.000 L55.000,16.000 L55.000,29.000 L28.000,29.000 ZM45.000,20.000 L31.000,20.000 L31.000,27.000 L45.000,27.000 L45.000,20.000 ZM52.000,20.000 L46.000,20.000 L46.000,27.000 L52.000,27.000 L52.000,20.000 ZM5.000,5.000 L43.000,5.000 L43.000,6.000 L5.000,6.000 L5.000,5.000 ZM26.000,29.000 L9.000,29.000 L9.000,7.000 L26.000,7.000 L26.000,29.000 ZM23.000,10.000 L12.000,10.000 L12.000,16.000 L23.000,16.000 L23.000,10.000 ZM23.000,20.000 L12.000,20.000 L12.000,27.000 L23.000,27.000 L23.000,20.000 Z"/>
</svg>
