<svg
 xmlns="http://www.w3.org/2000/svg"
 xmlns:xlink="http://www.w3.org/1999/xlink"
 width="21.5px" height="22.5px">
<path fill-rule="evenodd"  stroke="rgb(187, 156, 102)" stroke-width="1px" stroke-linecap="butt" stroke-linejoin="miter" fill="none"
 d="M10.500,21.500 C4.977,21.500 0.500,17.023 0.500,11.500 C0.500,6.315 4.447,2.052 9.500,1.551 L9.500,1.500 L1.500,1.500 L1.500,0.500 L9.500,0.500 L10.500,0.500 L10.500,1.500 L10.500,2.500 L10.500,9.500 L9.500,9.500 L9.500,2.559 C5.001,3.057 1.500,6.868 1.500,11.500 C1.500,16.471 5.529,20.500 10.500,20.500 C15.471,20.500 19.500,16.471 19.500,11.500 C19.500,9.015 18.493,6.765 16.864,5.136 L17.571,4.429 C19.381,6.239 20.500,8.739 20.500,11.500 C20.500,17.023 16.023,21.500 10.500,21.500 Z"/>
</svg>
