<svg
 xmlns="http://www.w3.org/2000/svg"
 xmlns:xlink="http://www.w3.org/1999/xlink"
 width="49px" height="80px">
<defs>
<filter id="Filter_0">
    <feOffset in="SourceAlpha" dx="0" dy="1" />
    <feGaussianBlur result="blurOut" stdDeviation="0" />
    <feFlood flood-color="rgb(255, 241, 216)" result="floodOut" />
    <feComposite operator="out" in="floodOut" in2="blurOut" result="compOut" />
    <feComposite operator="in" in="compOut" in2="SourceAlpha" />
    <feComponentTransfer><feFuncA type="linear" slope="0.44"/></feComponentTransfer>
    <feBlend mode="normal" in2="SourceGraphic" />
</filter>
<linearGradient id="PSgrad_0" x1="0%" x2="0%" y1="100%" y2="0%">
  <stop offset="0%" stop-color="rgb(0,0,0)" stop-opacity="0.96" />
  <stop offset="50%" stop-color="rgb(158,158,158)" stop-opacity="0.96" />
  <stop offset="50%" stop-color="rgb(208,208,208)" stop-opacity="0.96" />
  <stop offset="100%" stop-color="rgb(158,158,158)" stop-opacity="0.96" />
</linearGradient>

</defs>
<g filter="url(#Filter_0)">
<path fill-rule="evenodd"  fill="rgb(187, 156, 102)"
 d="M36.000,24.000 L36.000,5.000 L13.000,5.000 L13.000,24.000 C8.627,27.496 5.003,33.761 5.002,39.717 C5.003,45.674 7.627,50.504 12.000,54.000 L12.000,74.000 L37.000,74.000 L37.000,54.000 C41.373,50.504 43.997,45.674 43.998,39.717 C43.997,33.762 40.373,27.497 36.000,24.000 ZM35.267,50.247 C32.504,52.945 28.711,54.607 24.500,54.608 C20.289,54.607 16.495,52.945 13.733,50.247 C10.975,47.545 9.275,43.836 9.274,39.717 C9.275,35.599 10.975,31.889 13.733,29.189 C16.495,26.491 20.289,24.829 24.500,24.828 C28.711,24.829 32.504,26.491 35.267,29.189 C38.025,31.889 39.725,35.599 39.726,39.717 C39.725,43.836 38.025,47.545 35.267,50.247 ZM26.000,38.000 L26.000,30.000 L23.000,30.000 L23.000,41.000 L37.000,41.000 L37.000,38.000 L26.000,38.000 Z"/>
</g>
<path fill="url(#PSgrad_0)"
 d="M36.000,24.000 L36.000,5.000 L13.000,5.000 L13.000,24.000 C8.627,27.496 5.003,33.761 5.002,39.717 C5.003,45.674 7.627,50.504 12.000,54.000 L12.000,74.000 L37.000,74.000 L37.000,54.000 C41.373,50.504 43.997,45.674 43.998,39.717 C43.997,33.762 40.373,27.497 36.000,24.000 ZM35.267,50.247 C32.504,52.945 28.711,54.607 24.500,54.608 C20.289,54.607 16.495,52.945 13.733,50.247 C10.975,47.545 9.275,43.836 9.274,39.717 C9.275,35.599 10.975,31.889 13.733,29.189 C16.495,26.491 20.289,24.829 24.500,24.828 C28.711,24.829 32.504,26.491 35.267,29.189 C38.025,31.889 39.725,35.599 39.726,39.717 C39.725,43.836 38.025,47.545 35.267,50.247 ZM26.000,38.000 L26.000,30.000 L23.000,30.000 L23.000,41.000 L37.000,41.000 L37.000,38.000 L26.000,38.000 Z"/>
</svg>
