<svg xmlns="http://www.w3.org/2000/svg" width="62" height="43"><defs><linearGradient id="b" x1="0%" x2="0%" y1="100%" y2="0%"><stop offset="0%" stop-opacity=".96"/><stop offset="50%" stop-color="#9E9E9E" stop-opacity=".96"/><stop offset="50%" stop-color="#D0D0D0" stop-opacity=".96"/><stop offset="100%" stop-color="#9E9E9E" stop-opacity=".96"/></linearGradient><filter id="a"><feOffset in="SourceAlpha" dy="1"/><feGaussianBlur result="blurOut"/><feFlood flood-color="#FFF1D8" result="floodOut"/><feComposite operator="out" in="floodOut" in2="blurOut" result="compOut"/><feComposite operator="in" in="compOut" in2="SourceAlpha"/><feComponentTransfer><feFuncA type="linear" slope=".44"/></feComponentTransfer><feBlend in2="SourceGraphic"/></filter></defs><g filter="url(#a)"><path fill-rule="evenodd" fill="#BB9C66" d="M53.819 27.784c-1.917.859-4.234 1.618-6.85 2.237l-.136-22.225C42.988 6.084 37.286 5 30.925 5c-6.366 0-12.067 1.084-15.912 2.796v22.223c-2.61-.619-4.919-1.379-6.832-2.235l-2.182 4.783c6.282 2.783 15.12 4.421 24.999 4.433 9.878-.012 18.725-1.65 25.003-4.433l-2.182-4.783z"/></g><path fill="url(#b)" d="M53.819 27.784c-1.917.859-4.234 1.618-6.85 2.237l-.136-22.225C42.988 6.084 37.286 5 30.925 5c-6.366 0-12.067 1.084-15.912 2.796v22.223c-2.61-.619-4.919-1.379-6.832-2.235l-2.182 4.783c6.282 2.783 15.12 4.421 24.999 4.433 9.878-.012 18.725-1.65 25.003-4.433l-2.182-4.783z"/></svg>