<svg xmlns="http://www.w3.org/2000/svg" width="28" height="41"><defs><linearGradient id="b" x1="0%" x2="0%" y1="100%" y2="0%"><stop offset="0%" stop-opacity=".96"/><stop offset="50%" stop-color="#9E9E9E" stop-opacity=".96"/><stop offset="50%" stop-color="#D0D0D0" stop-opacity=".96"/><stop offset="100%" stop-color="#9E9E9E" stop-opacity=".96"/></linearGradient><filter id="a"><feOffset in="SourceAlpha" dy="1"/><feGaussianBlur result="blurOut"/><feFlood flood-color="#FFF1D8" result="floodOut"/><feComposite operator="out" in="floodOut" in2="blurOut" result="compOut"/><feComposite operator="in" in="compOut" in2="SourceAlpha"/><feComponentTransfer><feFuncA type="linear" slope=".44"/></feComponentTransfer><feBlend in2="SourceGraphic"/></filter></defs><g filter="url(#a)"><path fill-rule="evenodd" fill="#BB9C66" d="M15.062 31.527v-9.738C19.524 21.244 23 17.313 23 12.558c0-1.32-.296-3.977-1.094-5.487L21.343 6H6.657l-.566 1.071C5.296 8.583 5 11.238 5 12.558c0 4.804 3.542 8.768 8.072 9.249v9.72c-3.641.115-6.451.846-6.451 1.729 0 .964 3.335 1.744 7.447 1.744 4.11 0 7.443-.78 7.443-1.744 0-.883-2.81-1.614-6.449-1.729z"/></g><path fill="url(#b)" d="M15.062 31.527v-9.738C19.524 21.244 23 17.313 23 12.558c0-1.32-.296-3.977-1.094-5.487L21.343 6H6.657l-.566 1.071C5.296 8.583 5 11.238 5 12.558c0 4.804 3.542 8.768 8.072 9.249v9.72c-3.641.115-6.451.846-6.451 1.729 0 .964 3.335 1.744 7.447 1.744 4.11 0 7.443-.78 7.443-1.744 0-.883-2.81-1.614-6.449-1.729z"/></svg>