<svg xmlns="http://www.w3.org/2000/svg" width="42" height="46"><defs><linearGradient id="b" x1="0%" x2="0%" y1="100%" y2="0%"><stop offset="0%" stop-opacity=".96"/><stop offset="50%" stop-color="#9E9E9E" stop-opacity=".96"/><stop offset="50%" stop-color="#D0D0D0" stop-opacity=".96"/><stop offset="100%" stop-color="#9E9E9E" stop-opacity=".96"/></linearGradient><filter id="a"><feOffset in="SourceAlpha" dy="1"/><feGaussianBlur result="blurOut"/><feFlood flood-color="#FFF1D8" result="floodOut"/><feComposite operator="out" in="floodOut" in2="blurOut" result="compOut"/><feComposite operator="in" in="compOut" in2="SourceAlpha"/><feComponentTransfer><feFuncA type="linear" slope=".44"/></feComponentTransfer><feBlend in2="SourceGraphic"/></filter></defs><g filter="url(#a)"><path fill-rule="evenodd" fill="#BB9C66" d="M35.532 34.24c-.252-.194-.596-1.135-.596-1.468V13.228c0-.334.344-1.061.596-1.252 0 0 1.467-1.118 1.467-2.305 0-1.604-1.445-2.905-3.23-2.905-.942 0-1.897.628-1.897.628-.263.173-.756.692-1.065.692H27.71c-.31 0-.57-.519-.836-.692 0 0-1.317-.861-2.496-.861h-.247c-.265.034-.667-.12-.895-.346 0 0-1.207-1.186-2.466-1.186-1.264 0-2.471 1.196-2.471 1.196-.23.224-.655.379-.945.336h-.279c-1.177 0-2.493.861-2.493.861-.266.173-1.015.692-1.324.692h-2.064c-.307 0-.803-.519-1.066-.692 0 0-.955-.628-1.897-.628-1.784 0-3.23 1.301-3.23 2.905 0 1.187 1.468 2.305 1.468 2.305.251.191.596.918.596 1.252V33.8c0 .334-.345.244-.596.44 0 0-1.468 1.119-1.468 2.306 0 1.604 1.446 2.904 3.23 2.904 1.054 0 2.116-.809 2.116-.809.255-.192.537-.727.847-.727h2.064c.309 0 .738.538.987.734 0 0 1.478 1.158 2.83 1.158.405 0 .616-.043.616-.043.304-.063.75.057.993.262 0 0 1.139.974 2.286.974 1.103 0 2.212-.893 2.212-.893.246-.201.67-.337.938-.3h.258c1.352 0 2.83-1.158 2.83-1.158.252-.196 1.225-.734 1.534-.734h2.065c.309 0 .592.535.844.727 0 0 1.064.809 2.118.809 1.785 0 3.23-1.3 3.23-2.904 0-1.187-1.467-2.306-1.467-2.306zm-4.725-.44H11.194V12.2h19.613v21.6z"/></g><path fill="url(#b)" d="M35.532 34.24c-.252-.194-.596-1.135-.596-1.468V13.228c0-.334.344-1.061.596-1.252 0 0 1.467-1.118 1.467-2.305 0-1.604-1.445-2.905-3.23-2.905-.942 0-1.897.628-1.897.628-.263.173-.756.692-1.065.692H27.71c-.31 0-.57-.519-.836-.692 0 0-1.317-.861-2.496-.861h-.247c-.265.034-.667-.12-.895-.346 0 0-1.207-1.186-2.466-1.186-1.264 0-2.471 1.196-2.471 1.196-.23.224-.655.379-.945.336h-.279c-1.177 0-2.493.861-2.493.861-.266.173-1.015.692-1.324.692h-2.064c-.307 0-.803-.519-1.066-.692 0 0-.955-.628-1.897-.628-1.784 0-3.23 1.301-3.23 2.905 0 1.187 1.468 2.305 1.468 2.305.251.191.596.918.596 1.252V33.8c0 .334-.345.244-.596.44 0 0-1.468 1.119-1.468 2.306 0 1.604 1.446 2.904 3.23 2.904 1.054 0 2.116-.809 2.116-.809.255-.192.537-.727.847-.727h2.064c.309 0 .738.538.987.734 0 0 1.478 1.158 2.83 1.158.405 0 .616-.043.616-.043.304-.063.75.057.993.262 0 0 1.139.974 2.286.974 1.103 0 2.212-.893 2.212-.893.246-.201.67-.337.938-.3h.258c1.352 0 2.83-1.158 2.83-1.158.252-.196 1.225-.734 1.534-.734h2.065c.309 0 .592.535.844.727 0 0 1.064.809 2.118.809 1.785 0 3.23-1.3 3.23-2.904 0-1.187-1.467-2.306-1.467-2.306zm-4.725-.44H11.194V12.2h19.613v21.6z"/></svg>