<svg xmlns="http://www.w3.org/2000/svg" width="46" height="43"><defs><linearGradient id="b" x1="0%" x2="0%" y1="100%" y2="0%"><stop offset="0%" stop-opacity=".96"/><stop offset="50%" stop-color="#9E9E9E" stop-opacity=".96"/><stop offset="50%" stop-color="#D0D0D0" stop-opacity=".96"/><stop offset="100%" stop-color="#9E9E9E" stop-opacity=".96"/></linearGradient><filter id="a"><feOffset in="SourceAlpha" dy="1"/><feGaussianBlur result="blurOut"/><feFlood flood-color="#FFF1D8" result="floodOut"/><feComposite operator="out" in="floodOut" in2="blurOut" result="compOut"/><feComposite operator="in" in="compOut" in2="SourceAlpha"/><feComponentTransfer><feFuncA type="linear" slope=".44"/></feComponentTransfer><feBlend in2="SourceGraphic"/></filter></defs><g filter="url(#a)"><path fill-rule="evenodd" fill="#BB9C66" d="M41 21.027c0-1.236-1.029-2.238-2.298-2.238h-1.07l-3-9.283-.031-.073c-.459-1.05-1.239-1.852-2.146-2.446-.911-.584-1.969-.978-3.143-.987H16.34c-1.173.009-2.233.403-3.144.987-.904.594-1.685 1.396-2.143 2.446l-.033.075-2.997 9.281h-.725C6.029 18.789 5 19.791 5 21.027v10.045h2.18v2.878c0 1.686 1.402 3.051 3.133 3.051 1.73 0 3.132-1.365 3.132-3.051v-2.878h19.001v2.878c0 1.683 1.402 3.051 3.133 3.051 1.73 0 3.132-1.368 3.132-3.051v-2.878H41V21.027zm-5.421 1.075c1.435 0 2.598 1.131 2.598 2.528 0 1.396-1.163 2.528-2.598 2.528-1.435 0-2.595-1.132-2.595-2.528 0-1.397 1.16-2.528 2.595-2.528zM14.362 10.705c.122-.248.423-.594.807-.836.412-.275.897-.413 1.171-.405h12.972c.275-.008.762.13 1.172.405.386.242.686.588.808.836l2.611 8.084H11.749l2.613-8.084zm-4.049 16.453c-1.435 0-2.598-1.132-2.598-2.528 0-1.397 1.163-2.528 2.598-2.528 1.433 0 2.594 1.131 2.594 2.528 0 1.396-1.161 2.528-2.594 2.528z"/></g><path fill="url(#b)" d="M41 21.027c0-1.236-1.029-2.238-2.298-2.238h-1.07l-3-9.283-.031-.073c-.459-1.05-1.239-1.852-2.146-2.446-.911-.584-1.969-.978-3.143-.987H16.34c-1.173.009-2.233.403-3.144.987-.904.594-1.685 1.396-2.143 2.446l-.033.075-2.997 9.281h-.725C6.029 18.789 5 19.791 5 21.027v10.045h2.18v2.878c0 1.686 1.402 3.051 3.133 3.051 1.73 0 3.132-1.365 3.132-3.051v-2.878h19.001v2.878c0 1.683 1.402 3.051 3.133 3.051 1.73 0 3.132-1.368 3.132-3.051v-2.878H41V21.027zm-5.421 1.075c1.435 0 2.598 1.131 2.598 2.528 0 1.396-1.163 2.528-2.598 2.528-1.435 0-2.595-1.132-2.595-2.528 0-1.397 1.16-2.528 2.595-2.528zM14.362 10.705c.122-.248.423-.594.807-.836.412-.275.897-.413 1.171-.405h12.972c.275-.008.762.13 1.172.405.386.242.686.588.808.836l2.611 8.084H11.749l2.613-8.084zm-4.049 16.453c-1.435 0-2.598-1.132-2.598-2.528 0-1.397 1.163-2.528 2.598-2.528 1.433 0 2.594 1.131 2.594 2.528 0 1.396-1.161 2.528-2.594 2.528z"/></svg>