<svg xmlns="http://www.w3.org/2000/svg" width="55" height="45"><defs><linearGradient id="b" x1="0%" x2="0%" y1="100%" y2="0%"><stop offset="0%" stop-opacity=".96"/><stop offset="50%" stop-color="#9E9E9E" stop-opacity=".96"/><stop offset="50%" stop-color="#D0D0D0" stop-opacity=".96"/><stop offset="100%" stop-color="#9E9E9E" stop-opacity=".96"/></linearGradient><filter id="a"><feOffset in="SourceAlpha" dy="1"/><feGaussianBlur result="blurOut"/><feFlood flood-color="#FFF1D8" result="floodOut"/><feComposite operator="out" in="floodOut" in2="blurOut" result="compOut"/><feComposite operator="in" in="compOut" in2="SourceAlpha"/><feComponentTransfer><feFuncA type="linear" slope=".44"/></feComponentTransfer><feBlend in2="SourceGraphic"/></filter></defs><g filter="url(#a)"><path fill-rule="evenodd" fill="#BB9C66" d="M46.743 31.186L30.145 20.803a3.765 3.765 0 00-.194-.113v-.927c3.084-1.002 5.307-3.84 5.307-7.19 0-4.183-3.471-7.571-7.759-7.573-4.288.002-7.761 3.39-7.761 7.573h4.903c.003-1.538 1.279-2.785 2.858-2.79 1.577.005 2.853 1.252 2.859 2.79-.006 1.539-1.282 2.788-2.859 2.791-.645 0-1.278.255-1.733.7a2.373 2.373 0 00-.718 1.692v2.934a3.384 3.384 0 00-.194.113L8.256 31.186c-1.834 1.144-2.671 3.335-2.059 5.372C6.811 38.596 8.726 40 10.902 40h33.196c2.175 0 4.09-1.404 4.701-3.442.615-2.037-.226-4.228-2.056-5.372zm-35.841 4.026L27.499 24.83l16.599 10.382H10.902z"/></g><path fill="url(#b)" d="M46.743 31.186L30.145 20.803a3.765 3.765 0 00-.194-.113v-.927c3.084-1.002 5.307-3.84 5.307-7.19 0-4.183-3.471-7.571-7.759-7.573-4.288.002-7.761 3.39-7.761 7.573h4.903c.003-1.538 1.279-2.785 2.858-2.79 1.577.005 2.853 1.252 2.859 2.79-.006 1.539-1.282 2.788-2.859 2.791-.645 0-1.278.255-1.733.7a2.373 2.373 0 00-.718 1.692v2.934a3.384 3.384 0 00-.194.113L8.256 31.186c-1.834 1.144-2.671 3.335-2.059 5.372C6.811 38.596 8.726 40 10.902 40h33.196c2.175 0 4.09-1.404 4.701-3.442.615-2.037-.226-4.228-2.056-5.372zm-35.841 4.026L27.499 24.83l16.599 10.382H10.902z"/></svg>