<svg xmlns="http://www.w3.org/2000/svg" width="49" height="47"><defs><linearGradient id="b" x1="0%" x2="0%" y1="100%" y2="0%"><stop offset="0%" stop-opacity=".96"/><stop offset="50%" stop-color="#9E9E9E" stop-opacity=".96"/><stop offset="50%" stop-color="#D0D0D0" stop-opacity=".96"/><stop offset="100%" stop-color="#9E9E9E" stop-opacity=".96"/></linearGradient><filter id="a"><feOffset in="SourceAlpha" dy="1"/><feGaussianBlur result="blurOut"/><feFlood flood-color="#FFF1D8" result="floodOut"/><feComposite operator="out" in="floodOut" in2="blurOut" result="compOut"/><feComposite operator="in" in="compOut" in2="SourceAlpha"/><feComponentTransfer><feFuncA type="linear" slope=".44"/></feComponentTransfer><feBlend in2="SourceGraphic"/></filter></defs><g filter="url(#a)"><path fill-rule="evenodd" fill="#BB9C66" d="M37.117 5.006H12.873l-6.877 9.793 18.998 26.203 18.998-26.203-6.875-9.793zm-15.18 8.289l3.06-4.133 3.061 4.133h-6.121zm6.679 2.979l-3.619 15.289-3.619-15.289h7.238zm-.817-8.289h5.808l-2.904 3.922-2.904-3.922zm-8.506 3.922l-2.906-3.918h5.808l-2.902 3.918zm-2.646 1.388h-5.991l2.917-4.152 3.074 4.152zm1.714 2.979l3.709 15.667-11.359-15.667h7.65zm13.274 0h7.642L27.929 31.928l3.706-15.654zm1.712-2.979l3.073-4.149 2.913 4.149h-5.986z"/></g><path fill="url(#b)" d="M37.117 5.006H12.873l-6.877 9.793 18.998 26.203 18.998-26.203-6.875-9.793zm-15.18 8.289l3.06-4.133 3.061 4.133h-6.121zm6.679 2.979l-3.619 15.289-3.619-15.289h7.238zm-.817-8.289h5.808l-2.904 3.922-2.904-3.922zm-8.506 3.922l-2.906-3.918h5.808l-2.902 3.918zm-2.646 1.388h-5.991l2.917-4.152 3.074 4.152zm1.714 2.979l3.709 15.667-11.359-15.667h7.65zm13.274 0h7.642L27.929 31.928l3.706-15.654zm1.712-2.979l3.073-4.149 2.913 4.149h-5.986z"/></svg>