<svg xmlns="http://www.w3.org/2000/svg" width="48" height="42"><defs><linearGradient id="b" x1="0%" x2="0%" y1="100%" y2="0%"><stop offset="0%" stop-opacity=".96"/><stop offset="50%" stop-color="#9E9E9E" stop-opacity=".96"/><stop offset="50%" stop-color="#D0D0D0" stop-opacity=".96"/><stop offset="100%" stop-color="#9E9E9E" stop-opacity=".96"/></linearGradient><filter id="a"><feOffset in="SourceAlpha" dy="1"/><feGaussianBlur result="blurOut"/><feFlood flood-color="#FFF1D8" result="floodOut"/><feComposite operator="out" in="floodOut" in2="blurOut" result="compOut"/><feComposite operator="in" in="compOut" in2="SourceAlpha"/><feComponentTransfer><feFuncA type="linear" slope=".44"/></feComponentTransfer><feBlend in2="SourceGraphic"/></filter></defs><g filter="url(#a)"><path fill-rule="evenodd" fill="#BB9C66" d="M28.467 32.747a10.234 10.234 0 01-.166-.971h-8.686c-.078.623-.216 1.327-.459 1.976-.243.655-.588 1.249-1.056 1.667-.47.418-1.054.679-1.871.682v.777h15.458v-.777c-.817-.003-1.401-.264-1.872-.682-.703-.625-1.125-1.658-1.348-2.672zM41.065 5.398H6.851c-.57 0-1.032.462-1.032 1.032v22.482c0 .57.462 1.033 1.032 1.033h34.214c.57 0 1.032-.463 1.032-1.033V6.43c0-.57-.462-1.032-1.032-1.032zM39.592 27.44H8.324V7.903h31.268V27.44z"/></g><path fill="url(#b)" d="M28.467 32.747a10.234 10.234 0 01-.166-.971h-8.686c-.078.623-.216 1.327-.459 1.976-.243.655-.588 1.249-1.056 1.667-.47.418-1.054.679-1.871.682v.777h15.458v-.777c-.817-.003-1.401-.264-1.872-.682-.703-.625-1.125-1.658-1.348-2.672zM41.065 5.398H6.851c-.57 0-1.032.462-1.032 1.032v22.482c0 .57.462 1.033 1.032 1.033h34.214c.57 0 1.032-.463 1.032-1.033V6.43c0-.57-.462-1.032-1.032-1.032zM39.592 27.44H8.324V7.903h31.268V27.44z"/></svg>