<svg xmlns="http://www.w3.org/2000/svg" width="60" height="35"><defs><linearGradient id="b" x1="0%" x2="0%" y1="100%" y2="0%"><stop offset="0%" stop-opacity=".96"/><stop offset="50%" stop-color="#9E9E9E" stop-opacity=".96"/><stop offset="50%" stop-color="#D0D0D0" stop-opacity=".96"/><stop offset="100%" stop-color="#9E9E9E" stop-opacity=".96"/></linearGradient><filter id="a"><feOffset in="SourceAlpha" dy="1"/><feGaussianBlur result="blurOut"/><feFlood flood-color="#FFF1D8" result="floodOut"/><feComposite operator="out" in="floodOut" in2="blurOut" result="compOut"/><feComposite operator="in" in="compOut" in2="SourceAlpha"/><feComponentTransfer><feFuncA type="linear" slope=".44"/></feComponentTransfer><feBlend in2="SourceGraphic"/></filter></defs><g filter="url(#a)"><path fill-rule="evenodd" fill="#BB9C66" d="M28 29V16h10V7h2v9h15v13H28zm17-9H31v7h14v-7zm7 0h-6v7h6v-7zM5 5h38v1H5V5zm21 24H9V7h17v22zm-3-19H12v6h11v-6zm0 10H12v7h11v-7z"/></g><path fill="url(#b)" d="M28 29V16h10V7h2v9h15v13H28zm17-9H31v7h14v-7zm7 0h-6v7h6v-7zM5 5h38v1H5V5zm21 24H9V7h17v22zm-3-19H12v6h11v-6zm0 10H12v7h11v-7z"/></svg>