<svg xmlns="http://www.w3.org/2000/svg" width="49" height="80"><defs><linearGradient id="b" x1="0%" x2="0%" y1="100%" y2="0%"><stop offset="0%" stop-opacity=".96"/><stop offset="50%" stop-color="#9E9E9E" stop-opacity=".96"/><stop offset="50%" stop-color="#D0D0D0" stop-opacity=".96"/><stop offset="100%" stop-color="#9E9E9E" stop-opacity=".96"/></linearGradient><filter id="a"><feOffset in="SourceAlpha" dy="1"/><feGaussianBlur result="blurOut"/><feFlood flood-color="#FFF1D8" result="floodOut"/><feComposite operator="out" in="floodOut" in2="blurOut" result="compOut"/><feComposite operator="in" in="compOut" in2="SourceAlpha"/><feComponentTransfer><feFuncA type="linear" slope=".44"/></feComponentTransfer><feBlend in2="SourceGraphic"/></filter></defs><g filter="url(#a)"><path fill-rule="evenodd" fill="#BB9C66" d="M36 24V5H13v19c-4.373 3.496-7.997 9.761-7.998 15.717C5.003 45.674 7.627 50.504 12 54v20h25V54c4.373-3.496 6.997-8.326 6.998-14.283C43.997 33.762 40.373 27.497 36 24zm-.733 26.247c-2.763 2.698-6.556 4.36-10.767 4.361-4.211-.001-8.005-1.663-10.767-4.361-2.758-2.702-4.458-6.411-4.459-10.53.001-4.118 1.701-7.828 4.459-10.528 2.762-2.698 6.556-4.36 10.767-4.361 4.211.001 8.004 1.663 10.767 4.361 2.758 2.7 4.458 6.41 4.459 10.528-.001 4.119-1.701 7.828-4.459 10.53zM26 38v-8h-3v11h14v-3H26z"/></g><path fill="url(#b)" d="M36 24V5H13v19c-4.373 3.496-7.997 9.761-7.998 15.717C5.003 45.674 7.627 50.504 12 54v20h25V54c4.373-3.496 6.997-8.326 6.998-14.283C43.997 33.762 40.373 27.497 36 24zm-.733 26.247c-2.763 2.698-6.556 4.36-10.767 4.361-4.211-.001-8.005-1.663-10.767-4.361-2.758-2.702-4.458-6.411-4.459-10.53.001-4.118 1.701-7.828 4.459-10.528 2.762-2.698 6.556-4.36 10.767-4.361 4.211.001 8.004 1.663 10.767 4.361 2.758 2.7 4.458 6.41 4.459 10.528-.001 4.119-1.701 7.828-4.459 10.53zM26 38v-8h-3v11h14v-3H26z"/></svg>